<?xml version="1.0" encoding="iso-8859-1"?>
<!-- Generator: Adobe Illustrator 19.0.0, SVG Export Plug-In . SVG Version: 6.00 Build 0)  -->
<!DOCTYPE svg PUBLIC "-//W3C//DTD SVG 1.1//EN" "http://www.w3.org/Graphics/SVG/1.1/DTD/svg11.dtd">
<svg version="1.1" id="Capa_1" xmlns="http://www.w3.org/2000/svg" xmlns:xlink="http://www.w3.org/1999/xlink" x="0px" y="0px"
	 viewBox="0 0 512 512" style="enable-background:new 0 0 512 512;" xml:space="preserve">
<path style="fill:#41465F;" d="M512,256c0,141.385-114.615,256-256,256S0,397.385,0,256S114.615,0,256,0S512,114.615,512,256z"/>
<path style="fill:#D29650;" d="M220,50v60c0,5.523-4.477,10-10,10h-66.667c-5.523,0-10-4.477-10-10V50c0-5.523,4.477-10,10-10H210
	C215.523,40,220,44.477,220,50z M326.667,40H260c-5.523,0-10,4.477-10,10v60c0,5.523,4.477,10,10,10h66.667c5.523,0,10-4.477,10-10
	V50C336.667,44.477,332.189,40,326.667,40z M210,190h-66.667c-5.523,0-10,4.477-10,10v60c0,5.523,4.477,10,10,10H210
	c5.523,0,10-4.477,10-10v-60C220,194.477,215.523,190,210,190z M326.667,190H260c-5.523,0-10,4.477-10,10v60c0,5.523,4.477,10,10,10
	h66.667c5.523,0,10-4.477,10-10v-60C336.667,194.477,332.189,190,326.667,190z M503.393,190H440c-5.523,0-10,4.477-10,10v60
	c0,5.523,4.477,10,10,10h66.667c1.832,0,3.544-0.501,5.021-1.361C511.891,264.451,512,260.238,512,256
	C512,233.177,508.997,211.058,503.393,190z"/>
<path style="fill:#5A6482;" d="M400,260V140h84.264c-5.314-10.436-11.331-20.451-17.973-30H400V44.323
	c-9.555-6.513-19.577-12.388-30-17.581V110H110V45.709C99.389,53.09,89.358,61.245,80,70.108V110H45.709
	c-6.642,9.549-12.659,19.564-17.973,30H80v120H0.051c0.156,10.154,0.896,20.166,2.201,30H80v140h30V290h260v140h30V290h109.748
	c1.305-9.834,2.046-19.846,2.201-30H400z M370,260H110V140h260V260z"/>
<path style="fill:#1E233C;" d="M452.561,420c-46.96,56.222-117.578,92-196.561,92s-149.601-35.778-196.561-92H452.561z"/>
<path style="fill:#E6B464;" d="M240,470H48c-5.523,0-10-4.477-10-10V294.757c0-5.523,4.477-10,10-10h192c5.523,0,10,4.477,10,10V460
	C250,465.523,245.523,470,240,470z"/>
<path style="fill:#D29650;" d="M48,284.757h43.515V470H48c-5.523,0-10-4.477-10-10V294.757C38,289.234,42.477,284.757,48,284.757z
	 M215,420c-8.284,0-15,6.716-15,15s6.716,15,15,15s15-6.716,15-15S223.284,420,215,420z M175,420c-8.284,0-15,6.716-15,15
	s6.716,15,15,15s15-6.716,15-15S183.284,420,175,420z"/>
<path style="fill:#FFFF91;" d="M173.333,65v10c0,2.761-2.239,5-5,5h-35V60h35C171.095,60,173.333,62.239,173.333,65z M168.333,210
	h-35v20h35c2.761,0,5-2.239,5-5v-10C173.333,212.239,171.095,210,168.333,210z M465,210h-35v20h35c2.761,0,5-2.239,5-5v-10
	C470,212.239,467.761,210,465,210z M285,210h-35v20h35c2.761,0,5-2.239,5-5v-10C290,212.239,287.761,210,285,210z M285,60h-35v20h35
	c2.761,0,5-2.239,5-5V65C290,62.239,287.761,60,285,60z M138.515,320H90v35.243h48.515c2.761,0,5-2.239,5-5V325
	C143.515,322.239,141.276,320,138.515,320z"/>
<path style="fill:#F7D139;" d="M91.515,355.243H38V320h53.515V355.243z"/>
<g>
</g>
<g>
</g>
<g>
</g>
<g>
</g>
<g>
</g>
<g>
</g>
<g>
</g>
<g>
</g>
<g>
</g>
<g>
</g>
<g>
</g>
<g>
</g>
<g>
</g>
<g>
</g>
<g>
</g>
</svg>
