<svg height="480pt" viewBox="0 0 480 480" width="480pt" xmlns="http://www.w3.org/2000/svg"><path d="m352 424c0 4.417969-3.582031 8-8 8h-288c-4.417969 0-8-3.582031-8-8v-400c0-4.417969 3.582031-8 8-8h224v56c0 13.253906 10.746094 24 24 24h48v48h16v-55.753906c0-1.972656-.730469-3.875-2.046875-5.34375l-72-80.246094c-1.519531-1.691406-3.683594-2.65625-5.953125-2.65625h-232c-13.253906 0-24 10.746094-24 24v8h-8c-13.253906 0-24 10.746094-24 24v400c0 13.253906 10.746094 24 24 24h296c13.253906 0 24-10.746094 24-24v-8c13.253906 0 24-10.746094 24-24v-88h-16zm-56-352v-43.078125l45.847656 51.078125h-37.847656c-4.417969 0-8-3.582031-8-8zm32 384c0 4.417969-3.582031 8-8 8h-296c-4.417969 0-8-3.582031-8-8v-400c0-4.417969 3.582031-8 8-8h8v376c0 13.253906 10.746094 24 24 24h272zm0 0"/><path d="m80 48h16v16h-16zm0 0"/><path d="m112 48h64v16h-64zm0 0"/><path d="m80 80h96v16h-96zm0 0"/><path d="m80 144h32v16h-32zm0 0"/><path d="m128 144h112v16h-112zm0 0"/><path d="m80 192h160v16h-160zm0 0"/><path d="m80 240h160v16h-160zm0 0"/><path d="m80 288h160v16h-160zm0 0"/><path d="m448 208c-14.546875.054688-27.226562 9.914062-30.863281 24h-81.9375c-1.03125-5.007812-3.019531-9.769531-5.855469-14.023438l70.511719-70.511718c4.875 2.9375 10.453125 4.503906 16.144531 4.535156 17.671875 0 32-14.328125 32-32s-14.328125-32-32-32-32 14.328125-32 32c.027344 5.695312 1.59375 11.277344 4.535156 16.152344l-70.511718 70.511718c-16.699219-11.074218-39.015626-8.082031-52.210938 6.996094-13.195312 15.082032-13.195312 37.597656 0 52.679688 13.195312 15.078125 35.511719 18.070312 52.210938 6.996094l70.511718 70.511718c-2.941406 4.875-4.507812 10.457032-4.535156 16.152344 0 17.671875 14.328125 32 32 32s32-14.328125 32-32-14.328125-32-32-32c-5.695312.027344-11.277344 1.59375-16.152344 4.535156l-70.511718-70.511718c2.839843-4.253907 4.832031-9.015626 5.863281-14.023438h81.9375c4.183593 16.0625 19.972656 26.242188 36.328125 23.425781 16.359375-2.816406 27.832031-17.6875 26.410156-34.226562-1.425781-16.535157-15.277344-29.222657-31.875-29.199219zm-32-104c8.835938 0 16 7.164062 16 16s-7.164062 16-16 16-16-7.164062-16-16 7.164062-16 16-16zm-120 160c-13.253906 0-24-10.746094-24-24s10.746094-24 24-24 24 10.746094 24 24-10.746094 24-24 24zm136 96c0 8.835938-7.164062 16-16 16s-16-7.164062-16-16 7.164062-16 16-16 16 7.164062 16 16zm16-104c-8.835938 0-16-7.164062-16-16s7.164062-16 16-16 16 7.164062 16 16-7.164062 16-16 16zm0 0"/><path d="m208 352h64v16h-64zm0 0"/><path d="m208 384h64v16h-64zm0 0"/></svg>