<svg height="496pt" viewBox="0 0 496 496" width="496pt" xmlns="http://www.w3.org/2000/svg"><path d="m58.339844 389.652344 11.3125-11.3125 47.996094 47.996094-11.3125 11.316406zm0 0"/><path d="m237.65625 320.398438 24.398438-24.398438-24.398438-24.398438-11.3125 11.308594 13.089844 13.089844-13.089844 13.089844zm0 0"/><path d="m200 256.566406 13.089844 13.089844 11.308594-11.3125-24.398438-24.398438-24.398438 24.398438 11.308594 11.3125zm0 0"/><path d="m146.34375 336.398438 11.3125-11.308594-13.089844-13.089844 13.089844-13.089844-11.3125-11.308594-24.398438 24.398438zm0 0"/><path d="m208.398438 349.65625-11.308594-11.3125-13.089844 13.089844-13.089844-13.089844-11.308594 11.3125 24.398438 24.398438zm0 0"/><path d="m184 419.3125 123.3125-123.3125-107.3125-107.3125-123.3125 123.3125zm100.6875-123.3125-100.6875 100.6875-84.6875-84.6875 100.6875-100.6875zm0 0"/><path d="m192 328c13.230469 0 24-10.769531 24-24s-10.769531-24-24-24-24 10.769531-24 24 10.769531 24 24 24zm0-32c4.40625 0 8 3.585938 8 8s-3.59375 8-8 8-8-3.585938-8-8 3.59375-8 8-8zm0 0"/><path d="m496 0h-352v196.6875l-130.34375 130.34375c-8.679688 8.679688-13.65625 20.695312-13.65625 32.96875s4.976562 24.289062 13.65625 32.96875l89.375 89.375c8.800781 8.808594 20.511719 13.65625 32.96875 13.65625s24.167969-4.847656 32.96875-13.65625l162.34375-162.34375h164.6875zm-16 96h-80v-80h80zm-240-80v80h-80v-80zm103.902344 268.59375-132.496094-132.496094c5.65625-5.175781 12.882812-8.097656 20.59375-8.097656 8.175781 0 15.871094 3.183594 21.65625 8.96875l89.375 89.375c5.785156 5.785156 8.96875 13.480469 8.96875 21.65625 0 7.601562-2.992188 14.984375-8.097656 20.59375zm-143.902344-121.28125 132.6875 132.6875-148.6875 148.6875-132.6875-132.6875zm-42.34375 307.71875c-11.566406 11.5625-31.746094 11.5625-43.3125 0l-89.375-89.375c-5.695312-5.703125-8.96875-13.59375-8.96875-21.65625s3.273438-15.953125 8.96875-21.65625l15.03125-15.03125 132.6875 132.6875zm189.65625-167.03125 7.03125-7.03125c8.679688-8.679688 13.65625-20.695312 13.65625-32.96875 0-12.457031-4.847656-24.167969-13.65625-32.96875l-89.375-89.375c-8.800781-8.808594-20.511719-13.65625-32.96875-13.65625s-24.167969 4.847656-32.96875 13.65625l-39.03125 39.03125v-68.6875h96v-96h128v96h96v192zm0 0"/><path d="m224 32h-48v48h48zm-16 32h-16v-16h16zm0 0"/><path d="m464 80v-48h-48v48zm-32-32h16v16h-16zm0 0"/><path d="m336 72h-48v-40h-16v56h64zm0 0"/><path d="m352 112h16v-88h-64v16h48zm0 0"/><path d="m416 160h16v-16h32v-16h-48zm0 0"/><path d="m448 176h-32v16h48v-32h-16zm0 0"/><path d="m272 104h16v16h-16zm0 0"/><path d="m304 104h16v16h-16zm0 0"/><path d="m176 128h16v16h-16zm0 0"/><path d="m416 256h32v32h16v-48h-48zm0 0"/><path d="m400 240h-16v48h48v-16h-32zm0 0"/><path d="m448 208h16v16h-16zm0 0"/><path d="m416 208h16v16h-16zm0 0"/><path d="m384 208h16v16h-16zm0 0"/><path d="m352 144h32v48h16v-64h-48zm0 0"/><path d="m336 136h-16v40h48v-16h-32zm0 0"/></svg>